<svg id="eMBugDt6aL11" xmlns="http://www.w3.org/2000/svg" xmlns:xlink="http://www.w3.org/1999/xlink" viewBox="63 171 164 158" shape-rendering="geometricPrecision" text-rendering="geometricPrecision" project-id="8c8a5bf182174f6cba99c0ae8df1ba8b" export-id="767870af601b474cb07c79c8d96a970b" cached="false"><path d="M110.431,219.563c5.32-5.32,16.848-17.068,32.365-11.305c11.841,4.398,36.799,14.853,53.204,19.73l3.848-.726c-8.455-28.691-34.978-49.641-66.409-49.641-38.24,0-69.24,31-69.24,69.241s31,69.24,69.24,69.24c25.924,0,48.507-14.256,60.373-35.347-22.063-.348-27.445-17.205-32.616-13.974-1.792,1.119-5.748,3.646-10.44,6.091l5.324,6.354c10.506,13.135-2.45,21.715-2.45,21.715l-3.288-3.7c-2.055,5.291-6.641,8.337-6.641,8.337l-5.245-5.901c-1.414,1.387-2.531,2.132-2.531,2.132l-15.961-17.956l3.99-15.518c0,0,.33.127,1.21.473c3.584-10.664,22.28-26.146,27.832-30.567l-1.775-.943h-21.503c0,0-1.107,4.212-10.419,10.419c11.083,30.371-12.414,35.248-12.414,35.248s-7.495-26.781-11.527-36.801c-3.933-9.77,9.752-21.281,15.073-26.601" fill="#e56031"/><path d="M144.535,275.806q-.67.28-1.339.541l.843,1.008.496-1.549Z" fill="#e56031" stroke="#e56031" stroke-miterlimit="10"/><path d="M110.541,259.352C121.847,277.308,132.156,267,132.156,267l12.635-36.245-20.616-1.995-14.963,24.274l1.329,6.318Z" fill="#043730" stroke="#fff" stroke-miterlimit="10"/><path d="M206.865,225.938L196,227.988c-16.404-4.877-41.362-15.333-53.204-19.73-15.517-5.763-27.045,5.985-32.365,11.305-5.32,5.321-19.005,16.831-15.074,26.602c4.032,10.02,11.527,36.801,11.527,36.801s23.497-4.877,12.414-35.248c9.312-6.207,10.419-10.419,10.419-10.419h21.503l58.498,31.059" fill="#fff" stroke="#e56031" stroke-linecap="round" stroke-linejoin="round" stroke-miterlimit="10"/><path d="M141.023,286.757l12.607,14.185c0,0,12.956-8.58,2.45-21.715l-9.142-10.909-5.915,18.439Z" fill="#fff" stroke="#e56031" stroke-miterlimit="10"/><path d="M137.698,293.011l4.901,5.931c.981655,1.189438,2.395934,1.939787,3.931224,2.085719s3.065608-.324526,4.253776-1.307719c2.473232-2.045935,2.821427-5.708695.778-8.184l-4.899-5.932-8.965,7.407Z" fill="#e56031"/><path d="M129.052,289.098l14.649,16.48c0,0,15.056-9.972,2.848-25.23l-10.624-12.677-6.873,21.427Z" fill="#fff" stroke="#e56031" stroke-miterlimit="10"/><path d="M128.186,294.722l4.901,5.932c1.323133,1.601086,3.399928,2.374667,5.448075,2.029343s3.756486-1.75709,4.4815-3.7035.356558-4.131757-.966575-5.732843l-4.9-5.931-8.964,7.406Z" fill="#e56031"/><path d="M119.963,283.853l15.961,17.956c0,0,16.403-10.863,3.103-27.488-12.192-4.878-15.074-5.985-15.074-5.985l-3.99,15.517Z" fill="#fff" stroke="#e56031" stroke-miterlimit="10"/><path d="M120.197,290.919l4.901,5.93c.981773,1.188994,2.395921,1.938955,3.930961,2.084694s3.065054-.324699,4.253039-1.307694c2.474167-2.045017,2.822462-5.708374.778-8.183l-4.9-5.933-8.963,7.409Z" fill="#e56031"/><path d="M140.137,276.095c0,0,24.829,17.513,56.527,4.654c31.701-12.857-27.932-29.039-27.932-29.039l-22.39,11.747-6.205,12.638Z" fill="#043730" stroke="#e56031" stroke-miterlimit="10"/><path d="M161.167,196.574L100.205,307.613c4.041684,2.217938,8.296067,4.024016,12.699,5.391L169.226,210.42m0,0l13.02-23.714-12.049-6.58-9.03,16.448m-62.73,116.3l-.959,15.202l12.862-9.658c-4.134883-1.465414-8.120593-3.321818-11.903-5.544" fill="#043730"/><path d="M225.706,267.889c-13.301,2.662-22.613,12.415-29.927,12.858-23.72.664-29.262-17.292-34.583-13.966s-29.705,19.063-35.912,8.203c-6.207-10.862,29.27-37.966,29.27-37.966" fill="#fff" stroke="#e56031" stroke-linecap="round" stroke-linejoin="round" stroke-miterlimit="10"/><path d="M137.192,260.608l-6.362,4.327c-1.735766,1.160315-2.715936,3.162386-2.567839,5.245s1.401712,3.925838,3.284204,4.828855s4.10467.727103,5.821635-.460855l6.362-4.326-6.538-9.614ZM96.9,266.46l1.973,7.437c.395056,1.490389,1.36633,2.762626,2.699907,3.536513s2.920078.985951,4.410093.589487c1.490129-.394863,2.762248-1.365739,3.536287-2.69888s.986538-2.919247.590713-4.40912l-1.973-7.437L96.9,266.46Z" fill="#e56031"/><path d="M107.758,244.96c0,0,5.009,3.041,11.54,2.757m6.532-16.263c0,0,1.117,3.698,3.887,5.844" fill="none" stroke="#e56031" stroke-linecap="round" stroke-linejoin="round" stroke-miterlimit="10"/><path d="M184.348,183.926l.686-1.239c1.939482-3.502361.672984-7.913837-2.829-9.854-3.501868-1.938962-7.912512-.673023-9.853,2.828l-.685,1.239l12.681,7.026Z" fill="#e56031"/><path d="M154.554,237.018c0,0,6.446-4.185,14.78-4.018m-31.251,4.542l-14.375,26.417" fill="none" stroke="#e56031" stroke-linecap="round" stroke-miterlimit="10"/></svg>
